# xmcd
#
# Track frame offsets:
#	150
#	34562
#	64305
#	104123
#	180851
#	204610
#	249803
#
# Disc length: 3828 seconds
#
# Revision: 1
# Processed by: cddbd v1.5.2PL0 Copyright (c) Steve Scherf et al.
# Submitted via: audiograbber 1.83.01
#
DISCID=580ef207
DTITLE=Mark Knopfler - Live in Los Angeles 01
DYEAR=2001
DGENRE=Rock
TTITLE0=Speedway at Nazareth
TTITLE1=Prairie Wedding
TTITLE2=Pyroman
TTITLE3=Telegraph Road
TTITLE4=Brothers in Arms 
TTITLE5=Money for Nothing
TTITLE6=So far Away
EXTD=
EXTT0=
EXTT1=
EXTT2=
EXTT3=
EXTT4=
EXTT5=
EXTT6=
PLAYORDER=
